<?xml version="1.0" encoding="UTF-8" standalone="no"?>
<!-- Created with Inkscape (http://www.inkscape.org/) -->

<svg
   xmlns:dc="http://purl.org/dc/elements/1.1/"
   xmlns:cc="http://creativecommons.org/ns#"
   xmlns:rdf="http://www.w3.org/1999/02/22-rdf-syntax-ns#"
   xmlns:svg="http://www.w3.org/2000/svg"
   xmlns="http://www.w3.org/2000/svg"
   xmlns:sodipodi="http://sodipodi.sourceforge.net/DTD/sodipodi-0.dtd"
   xmlns:inkscape="http://www.inkscape.org/namespaces/inkscape"
   width="500"
   height="500"
   viewBox="0 0 132.29167 132.29167"
   version="1.1"
   id="svg8"
   inkscape:version="0.92.3 (2405546, 2018-03-11)"
   sodipodi:docname="parrot.svg">
  <defs
     id="defs2" />
  <sodipodi:namedview
     id="base"
     pagecolor="#ffffff"
     bordercolor="#666666"
     borderopacity="1.0"
     inkscape:pageopacity="0.0"
     inkscape:pageshadow="2"
     inkscape:zoom="1.4"
     inkscape:cx="281.09744"
     inkscape:cy="252.17413"
     inkscape:document-units="mm"
     inkscape:current-layer="layer1"
     showgrid="false"
     units="px"
     inkscape:window-width="1853"
     inkscape:window-height="1025"
     inkscape:window-x="67"
     inkscape:window-y="27"
     inkscape:window-maximized="1" />
  <metadata
     id="metadata5">
    <rdf:RDF>
      <cc:Work
         rdf:about="">
        <dc:format>image/svg+xml</dc:format>
        <dc:type
           rdf:resource="http://purl.org/dc/dcmitype/StillImage" />
        <dc:title></dc:title>
      </cc:Work>
    </rdf:RDF>
  </metadata>
  <g
     inkscape:label="Layer 1"
     inkscape:groupmode="layer"
     id="layer1"
     transform="translate(0,-164.70834)">
    <path
       style="fill:#000000;stroke-width:0.26458335"
       d="m 43.689949,283.53521 c -0.640829,-0.53923 -0.81226,-0.8911 -0.805638,-1.65365 0.0046,-0.53277 0.153861,-1.15963 0.331626,-1.39302 0.845479,-1.11006 5.81623,-2.78385 9.088954,-3.0605 1.047316,-0.0885 2.046126,-0.24867 2.219586,-0.35587 0.19201,-0.11868 0.50794,-2.04469 0.80769,-4.92397 0.27078,-2.60098 0.56022,-5.21822 0.6432,-5.81608 l 0.15089,-1.08703 -2.06112,-0.18193 c -2.196388,-0.19387 -7.319573,-1.25886 -9.131982,-1.89831 -0.789628,-0.2786 -1.144665,-0.30362 -1.2767,-0.09 -0.100592,0.16277 -0.263853,1.32588 -0.362799,2.58469 -0.09895,1.25882 -0.24864,2.73524 -0.332647,3.28095 l -0.152744,0.99218 h 1.585634 c 1.837894,0 2.83473,0.58874 3.108675,1.836 0.223358,1.01695 -0.421836,2.24182 -1.373053,2.60666 -0.407046,0.15613 -2.883207,0.34378 -5.502582,0.41701 -5.020506,0.14036 -8.160903,0.6561 -10.620788,1.74423 -0.671241,0.29692 -1.389809,0.53985 -1.596818,0.53985 -0.853436,0 -1.903937,-0.81608 -2.198187,-1.70767 -0.623328,-1.8887 0.647326,-3.01024 4.758501,-4.20007 1.236927,-0.35799 3.308445,-0.78039 4.603377,-0.93866 1.294929,-0.15828 2.389053,-0.32241 2.431383,-0.36475 0.09537,-0.0954 0.90274,-7.71863 0.90274,-8.52371 0,-0.43486 -0.356851,-0.7768 -1.389062,-1.33101 -7.903998,-4.24374 -14.55637,-11.15108 -18.708892,-19.42594 -4.929542,-9.82326 -6.019399,-21.17635 -3.049877,-31.77068 4.119635,-14.69758 16.076866,-26.60535 30.688456,-30.56153 4.411674,-1.19448 7.111805,-1.5423 11.906255,-1.53368 3.9965,0.007 4.79286,0.0858 7.14374,0.70479 5.11845,1.3478 9.83227,4.24083 12.70206,7.79568 0.92239,1.14257 1.44059,1.5829 1.71774,1.4596 2.96945,-1.3211 6.88155,-2.07633 9.65729,-1.86436 10.727973,0.81925 16.771443,12.53907 11.861383,23.00223 -0.83912,1.78815 -1.06031,2.0703 -1.526557,1.94732 -2.971153,-0.78364 -27.665036,-5.71085 -27.665036,-5.52005 0,0.0586 1.84574,4.52366 4.10164,9.92238 2.2559,5.39873 4.05745,9.86005 4.00343,9.91407 -0.054,0.054 -1.5128,0.47099 -3.24174,0.92662 -2.85779,0.7531 -3.51632,0.82945 -7.24458,0.83985 -3.73615,0.0104 -4.28392,-0.05 -6.15646,-0.67899 -1.87721,-0.63057 -2.07584,-0.65227 -2.29095,-0.25034 -0.18958,0.35425 1.78551,2.48979 10.12521,10.94777 l 10.36074,10.50769 18.785413,6.11645 c 10.33198,3.36405 18.87915,6.20482 18.9937,6.31282 0.25387,0.23935 -0.88674,3.47705 -1.80154,5.1138 -1.59625,2.85599 -4.79497,5.51788 -8.35619,6.95378 -1.71071,0.68977 -2.23524,1.0523 -3.09349,2.13806 -4.69493,5.93954 -13.334263,8.05717 -20.007893,4.90423 -0.88527,-0.41824 -6.37208,-3.5229 -12.19291,-6.89923 l -10.58334,-6.13879 -1.31812,0.16529 c -0.72496,0.0909 -1.35599,0.20316 -1.40228,0.24945 -0.0463,0.0463 -0.31224,2.27095 -0.59101,4.94369 -0.27877,2.67273 -0.57188,5.306 -0.65137,5.85171 l -0.14451,0.99218 h 1.61098 c 1.42777,0 1.69893,0.0879 2.38437,0.7734 1.03982,1.03982 1.03982,2.17589 0,3.21571 l -0.77339,0.77339 h -3.62442 c -4.4152,0 -8.489071,0.5666 -11.528943,1.60346 -1.254199,0.42779 -2.465454,0.77779 -2.691678,0.77779 -0.226226,0 -0.777642,-0.30823 -1.225367,-0.68497 z m 53.293241,-9.50949 c 0.72761,-0.24746 1.85475,-0.76029 2.504763,-1.13962 l 1.181837,-0.68969 -0.917257,-0.23785 c -0.504497,-0.13082 -7.145786,-2.20427 -14.758436,-4.60767 -8.41969,-2.65819 -13.93647,-4.27452 -14.08446,-4.12653 -0.23228,0.23228 16.35786,10.00455 18.13605,10.68289 2.28362,0.87115 5.57972,0.92035 7.937503,0.11847 z m 9.55735,-7.14419 c 1.86575,-0.52804 4.41204,-2.29301 5.64979,-3.91619 0.56815,-0.74506 1.01037,-1.373 0.98272,-1.3954 -0.0277,-0.0224 -5.61144,-1.85251 -12.40841,-4.06688 l -12.358113,-4.02614 -1.40021,0.81258 c -0.77012,0.44691 -2.47177,1.58606 -3.78146,2.53144 -1.30969,0.94538 -3.03563,2.0721 -3.83543,2.50383 -0.96362,0.52016 -1.32064,0.83426 -1.05833,0.93109 1.98411,0.73245 21.576166,6.85996 22.488543,7.03339 1.46327,0.27817 3.91471,0.10345 5.7209,-0.40772 z m -41.491513,-7.09197 c 0.91736,-0.20932 1.72355,-0.4362 1.79153,-0.50418 0.068,-0.068 -0.81931,-0.20223 -1.97177,-0.29835 -6.0835,-0.50734 -12.258435,-3.29304 -16.791594,-7.57518 -6.780612,-6.40515 -10.295769,-14.79041 -9.871435,-23.54792 0.315172,-6.50455 3.117443,-13.32935 6.982174,-17.00474 l 0.770628,-0.73287 5.787629,5.82609 c 3.183198,3.20436 5.872508,5.73681 5.976248,5.62767 0.44155,-0.46454 10.8772,-21.30878 11.73706,-23.44368 1.12667,-2.79738 2.79823,-5.45753 4.61135,-7.33862 1.03859,-1.07752 1.27351,-1.4739 1.08371,-1.82853 -0.13327,-0.24904 -1.18683,-1.34132 -2.34124,-2.4273 -4.3439,-4.08644 -9.96845,-5.66397 -17.79036,-4.98973 -9.547142,0.82297 -17.854943,4.67094 -24.590265,11.38963 -5.744477,5.73029 -9.43037,12.77167 -11.009172,21.03146 -0.621584,3.25193 -0.628311,10.21233 -0.01312,13.57025 3.044066,16.61546 16.011557,29.53366 32.593619,32.46975 2.653938,0.46992 10.602428,0.33359 13.045008,-0.22375 z m -5.18515,-54.70402 c -3.9646,-0.81085 -3.31596,-6.85494 0.73566,-6.85494 3.32845,0 4.89408,3.72838 2.50986,5.97698 -0.962,0.90728 -1.88341,1.15654 -3.24552,0.87796 z m 10.92556,48.96281 c 3.61341,-0.40906 10.63271,-2.39309 10.31058,-2.9143 -0.0716,-0.11586 -0.48469,-0.28851 -0.91796,-0.38368 -0.58868,-0.12929 -4.96247,-4.38797 -17.30568,-16.85019 l -16.517899,-16.67717 -0.707424,1.12063 c -3.215188,5.09319 -3.570719,13.26358 -0.874001,20.08532 2.342793,5.92643 6.549496,10.5729 11.989474,13.24284 4.64607,2.2803 8.74175,2.97442 14.02291,2.37655 z m 2.89331,-33.35516 c 0.13331,-0.1333 -3.72052,-9.75427 -4.25114,-10.61283 -0.17261,-0.2793 -5.08042,9.09535 -5.1104,9.76164 -0.0264,0.58704 3.13541,1.12619 6.24897,1.06557 1.62566,-0.0316 3.02632,-0.12812 3.11257,-0.21438 z M 97.91565,202.82991 c 0.51506,-2.48102 0.24083,-5.77499 -0.64111,-7.70085 -0.780683,-1.70476 -2.788773,-3.88177 -4.275453,-4.6351 -3.26852,-1.65623 -9.04807,-1.03184 -12.81327,1.38429 -0.72159,0.46304 -1.94035,1.52081 -2.70835,2.3506 -1.34621,1.45451 -3.11615,4.35127 -3.11615,5.10002 0,0.2656 2.99371,0.97279 11.17864,2.6407 6.14826,1.25289 11.378573,2.29338 11.622913,2.31221 0.3348,0.0258 0.52028,-0.33193 0.75278,-1.45187 z M 91.609647,241.953 c -0.81296,-0.70049 -3.75458,-7.38782 -3.75458,-8.53548 0,-1.9862 2.44535,-2.99431 3.81221,-1.57161 0.66904,0.69638 3.8607,7.5558 3.8607,8.2973 0,0.66807 -0.71472,1.92128 -1.20247,2.10845 -0.81486,0.31269 -2.18065,0.16249 -2.71586,-0.29866 z m 12.794973,-8.55507 c -6.4761,-5.52614 -7.28914,-6.32592 -7.28914,-7.17032 0,-1.71369 1.920656,-2.9925 3.35723,-2.23531 0.71624,0.37751 9.87852,8.09852 12.18704,10.26995 0.95511,0.8984 1.12447,1.21534 1.12447,2.10423 0,1.37992 -0.91611,2.34537 -2.22552,2.34537 -0.8217,0 -1.6321,-0.60195 -7.15408,-5.31392 z m 4.68359,-13.69718 c -2.07348,-0.53072 -4.00499,-1.16934 -4.29223,-1.41917 -1.23899,-1.07758 -0.96142,-2.97576 0.54291,-3.71268 0.93327,-0.45719 0.99492,-0.45037 5.12161,0.56625 4.75889,1.17238 5.29607,1.50032 5.29607,3.2332 0,0.85873 -0.1536,1.2172 -0.73634,1.71846 -0.94158,0.80991 -1.36782,0.78217 -5.93202,-0.38606 z"
       id="path826"
       inkscape:connector-curvature="0" />
  </g>
</svg>
